<svg width="22" height="22" viewBox="0 0 26 25" fill="none" xmlns="http://www.w3.org/2000/svg">
<path d="M8.99951 12.0111L9.00506 8.01108C9.00812 5.80195 10.8015 4.01357 13.0106 4.01663V4.01663C15.2197 4.01969 17.0081 5.81303 17.005 8.02217L16.9995 12.0222" stroke="#3B25C0" stroke-width="2" stroke-linecap="round"/>
<path d="M4.69293 12.6729C4.84041 10.9322 4.91416 10.0619 5.48898 9.53444C6.06379 9.00701 6.93726 9.00822 8.68419 9.01064L17.3231 9.02261C19.07 9.02503 19.9435 9.02624 20.5169 9.55527C21.0902 10.0843 21.1616 10.9549 21.3042 12.696L21.8095 18.8627C21.8926 19.8764 21.9341 20.3832 21.6365 20.7057C21.339 21.0282 20.8305 21.0275 19.8134 21.0261L6.16063 21.0072C5.14358 21.0057 4.63505 21.005 4.33839 20.6817C4.04174 20.3584 4.08467 19.8517 4.17054 18.8383L4.69293 12.6729Z" fill="#3B25C0"/>
</svg>
