<svg width="14" height="14" viewBox="0 0 16 16" fill="none" xmlns="http://www.w3.org/2000/svg">
<path d="M6.58933 4.01661C7.12439 2.68271 7.39192 2.01576 7.82657 1.92332C7.94086 1.89901 8.05898 1.89901 8.17327 1.92332C8.60792 2.01576 8.87545 2.68271 9.41051 4.01661C9.71479 4.77518 9.86693 5.15446 10.1516 5.41244C10.2315 5.48479 10.3181 5.54924 10.4104 5.60486C10.7395 5.80318 11.1502 5.83996 11.9717 5.91353C13.3623 6.03808 14.0576 6.10035 14.27 6.4968C14.3139 6.57891 14.3438 6.66781 14.3584 6.7598C14.4288 7.20399 13.9177 7.66904 12.8953 8.59914L12.6114 8.85743C12.1335 9.29227 11.8945 9.50969 11.7563 9.78102C11.6734 9.94379 11.6178 10.1191 11.5917 10.2999C11.5483 10.6013 11.6183 10.9167 11.7582 11.5475L11.8082 11.7729C12.0592 12.9042 12.1847 13.4698 12.0281 13.7478C11.8873 13.9976 11.6281 14.1575 11.3418 14.1711C11.023 14.1864 10.5739 13.8204 9.67557 13.0884C9.08373 12.6061 8.78781 12.365 8.4593 12.2708C8.1591 12.1847 7.84074 12.1847 7.54053 12.2708C7.21203 12.365 6.91611 12.6061 6.32427 13.0884C5.42595 13.8204 4.9768 14.1864 4.65803 14.1711C4.3717 14.1575 4.11249 13.9976 3.97177 13.7478C3.81511 13.4698 3.94061 12.9042 4.1916 11.7729L4.24161 11.5475C4.38157 10.9167 4.45155 10.6013 4.40812 10.2999C4.38207 10.1191 4.32648 9.94379 4.24356 9.78102C4.10533 9.50969 3.86636 9.29227 3.3884 8.85743L3.10451 8.59914C2.08218 7.66904 1.57102 7.20399 1.64142 6.7598C1.656 6.66781 1.68589 6.57891 1.72987 6.4968C1.9422 6.10035 2.63752 6.03808 4.02816 5.91353C4.84964 5.83996 5.26039 5.80318 5.58942 5.60486C5.68171 5.54924 5.76839 5.48479 5.84824 5.41244C6.13291 5.15446 6.28505 4.77518 6.58933 4.01661Z" fill="#3B25C0" stroke="#3B25C0" stroke-width="2"/>
</svg>
