<svg width="11" height="12" viewBox="0 0 11 13" fill="none" xmlns="http://www.w3.org/2000/svg">
<path d="M10.1543 2.7978H8.28546C8.12259 2.28846 7.83474 1.81228 7.43981 1.3989H10.1543C10.3786 1.3989 10.5937 1.32521 10.7523 1.19404C10.9109 1.06286 11 0.884957 11 0.699451C11 0.513945 10.9109 0.336037 10.7523 0.204864C10.5937 0.0736919 10.3786 0 10.1543 0H0.852194C0.627914 0 0.41282 0.0736919 0.254229 0.204864C0.0956392 0.336037 0.00654396 0.513945 0.00654396 0.699451C0.00654396 0.884957 0.0956392 1.06286 0.254229 1.19404C0.41282 1.32521 0.627914 1.3989 0.852194 1.3989H3.81197C4.3703 1.40052 4.91669 1.53273 5.38804 1.78027C5.8594 2.0278 6.23649 2.38056 6.47577 2.7978H0.852194C0.627914 2.7978 0.41282 2.87149 0.254229 3.00267C0.0956392 3.13384 0.00654396 3.31175 0.00654396 3.49725C0.00654396 3.68276 0.0956392 3.86067 0.254229 3.99184C0.41282 4.12301 0.627914 4.1967 0.852194 4.1967H6.77175C6.67037 4.77767 6.31999 5.30917 5.78447 5.69433C5.24894 6.0795 4.56392 6.29269 3.85425 6.29506H0.852194C0.81283 6.29178 0.773168 6.29178 0.733803 6.29506C0.677764 6.28784 0.620712 6.28784 0.564673 6.29506C0.507031 6.31129 0.452817 6.33489 0.404 6.365L0.302522 6.41396C0.256199 6.44856 0.216305 6.48863 0.184131 6.53287C0.155808 6.56387 0.130365 6.59661 0.108022 6.63079C0.100495 6.67253 0.100495 6.71496 0.108022 6.75669C0.0477595 6.82646 0.01258 6.90891 0.00654396 6.99451C0.00258767 7.02707 0.00258767 7.05987 0.00654396 7.09243C-0.00218132 7.13878 -0.00218132 7.18597 0.00654396 7.23232C0.0261757 7.28 0.0547093 7.32484 0.0911089 7.36522C0.0911089 7.36522 0.0911091 7.42117 0.150305 7.44915L5.22421 12.3453C5.36999 12.4863 5.57751 12.5736 5.80113 12.588C6.02474 12.6025 6.24612 12.5428 6.41657 12.4222C6.58703 12.3017 6.69259 12.13 6.71003 11.9451C6.72748 11.7601 6.65538 11.577 6.5096 11.436L2.69571 7.69396H3.81197C4.97564 7.69794 6.09883 7.34099 6.95988 6.69355C7.82093 6.0461 8.35727 5.15521 8.46305 4.1967H10.1543C10.3786 4.1967 10.5937 4.12301 10.7523 3.99184C10.9109 3.86067 11 3.68276 11 3.49725C11 3.31175 10.9109 3.13384 10.7523 3.00267C10.5937 2.87149 10.3786 2.7978 10.1543 2.7978Z" fill="#3B25C0"/>
</svg>
